PathFileType   4   (X/Y/Z)
DataRate	CameraRate	NumFrames	NumMarkers	Units	OrigDataRate	OrigDataStartFrame	OrigNumFrames
120.0	120.0	6	37	mm	120.0	28	97
Frame#	Time	midhip	hip_r	hip_l	knee_r	knee_l	ankle_r	ankle_l	midasis	asis_r	asis_l	psis_r	psis_l	epicondLat_r	epicondLat_l	epicondMed_r	epicondMed_l	malleolusLat_r	malleolusLat_l	malleolusMedv_r	malleolusMedv_l	neck	subclavicle_r	subclavicle_l	sternalnotch	xyphoidprocess	thighwand_r	thighwand_l	upperleg1_r	upperleg1_l	upperleg2_r	upperleg2_l	shankwand_r	shankwand_l	lowerleg1_r	lowerleg1_l	toe_r	toe_l
 	 	X1	Y1	Z1	X2	Y2	Z2	X3	Y3	Z3	X4	Y4	Z4	X5	Y5	Z5	X6	Y6	Z6	X7	Y7	Z7	X8	Y8	Z8	X9	Y9	Z9	X10	Y10	Z10	X11	Y11	Z11	X12	Y12	Z12	X13	Y13	Z13	X14	Y14	Z14	X15	Y15	Z15	X16	Y16	Z16	X17	Y17	Z17	X18	Y18	Z18	X19	Y19	Z19	X20	Y20	Z20	X21	Y21	Z21	X22	Y22	Z22	X23	Y23	Z23	X24	Y24	Z24	X25	Y25	Z25	X26	Y26	Z26	X27	Y27	Z27	X28	Y28	Z28	X29	Y29	Z29	X30	Y30	Z30	X31	Y31	Z31	X32	Y32	Z32	X33	Y33	Z33	X34	Y34	Z34	X35	Y35	Z35	X36	Y36	Z36	X37	Y37	Z37

	28	0.32500	1558.152	822.342	-239.168	1540.463	803.147	-174.655	1538.076	806.380	-326.730	1477.759	440.236	-192.097	1710.194	443.033	-357.131	1382.910	76.033	-208.728	1617.968	95.215	-354.719	1631.458	876.445	-247.575	1629.441	873.935	-130.245	1633.474	878.955	-364.904	1440.637	941.754	-216.118	1437.724	934.035	-270.134	1487.210	435.861	-135.040	1713.658	449.488	-414.666	1470.307	447.197	-253.841	1740.990	456.917	-295.458	1367.970	78.233	-171.689	1601.347	99.372	-390.863	1399.420	81.418	-240.315	1633.120	101.409	-331.547	1532.180	1378.159	-256.955	1661.062	1319.544	-214.463	1652.882	1310.616	-319.318	1653.520	1311.892	-265.883	1693.643	1242.521	-266.885	1654.463	546.110	-218.021	1693.240	582.588	-495.959	1606.172	603.287	-151.723	1624.476	602.409	-429.671	1577.089	520.664	-157.655	1670.490	527.247	-423.108	1376.718	151.400	-97.641	1738.849	195.380	-357.768	1384.173	160.285	-139.636	1698.795	202.348	-360.596	1474.733	39.610	-171.495	1710.133	59.609	-391.726
	29	0.33333	1571.333	821.606	-240.265	1553.277	801.056	-175.285	1550.730	804.894	-327.343	1483.140	440.566	-193.043	1727.416	443.961	-355.939	1383.825	77.320	-209.312	1655.598	90.573	-355.098	1644.297	874.514	-248.013	1642.399	871.534	-130.353	1646.196	877.494	-365.673	1453.174	940.240	-216.385	1450.126	932.512	-270.505	1492.125	436.005	-135.925	1730.690	450.125	-413.517	1476.782	447.354	-254.820	1756.448	458.429	-293.949	1368.747	79.787	-172.345	1638.918	93.877	-391.304	1400.157	82.727	-241.020	1670.956	97.032	-331.928	1545.518	1376.751	-256.647	1674.847	1318.201	-214.419	1666.157	1308.424	-319.253	1666.991	1310.285	-265.930	1707.111	1240.723	-266.417	1662.161	543.059	-217.780	1708.471	582.103	-495.315	1615.012	601.349	-151.906	1638.457	601.846	-429.339	1584.239	518.490	-158.103	1685.774	527.155	-422.239	1378.105	153.101	-98.472	1770.216	198.037	-357.261	1385.460	161.685	-140.372	1730.332	203.019	-360.476	1474.888	39.713	-171.650	1749.954	60.366	-392.703
	30	0.34167	1583.359	819.354	-241.428	1566.350	798.866	-175.835	1563.578	803.222	-327.875	1488.845	440.953	-193.901	1744.067	444.444	-354.876	1384.757	78.747	-209.816	1693.129	86.732	-355.487	1657.328	872.486	-248.450	1655.598	869.097	-130.415	1659.059	875.875	-366.485	1465.861	938.540	-216.738	1462.637	930.830	-270.944	1497.311	436.234	-136.716	1747.179	450.345	-412.491	1483.429	446.120	-254.797	1770.952	460.124	-291.958	1369.530	81.502	-172.930	1676.424	89.172	-391.749	1400.646	83.323	-241.809	1708.769	93.703	-332.368	1558.715	1375.032	-256.540	1688.461	1316.755	-214.431	1679.423	1306.889	-319.642	1680.451	1308.614	-266.036	1720.718	1239.317	-266.714	1670.152	540.026	-217.320	1723.434	581.307	-494.664	1622.813	599.066	-152.940	1652.280	600.554	-429.408	1591.164	517.639	-158.045	1700.335	527.194	-421.414	1379.541	154.972	-99.260	1800.986	201.145	-356.825	1386.948	163.088	-141.894	1760.952	203.607	-360.147	1475.036	39.846	-171.805	1789.477	61.783	-393.252
	31	0.35000	1594.831	816.135	-242.207	1579.619	796.603	-176.358	1576.618	801.412	-328.380	1494.893	441.378	-194.656	1760.130	444.458	-353.945	1385.721	80.332	-210.234	1730.301	83.753	-355.832	1670.526	870.390	-248.893	1668.969	866.639	-130.475	1672.084	874.141	-367.310	1478.705	936.681	-217.181	1475.282	929.032	-271.457	1502.792	436.545	-137.400	1763.115	450.121	-411.591	1489.725	446.128	-254.476	1784.940	460.948	-290.305	1370.341	83.394	-173.436	1713.598	85.324	-392.144	1401.578	83.907	-242.242	1746.084	91.267	-332.922	1572.240	1373.191	-256.478	1701.914	1314.898	-214.440	1692.792	1305.756	-320.072	1693.907	1306.908	-266.197	1734.213	1237.864	-267.483	1678.473	537.030	-216.653	1738.124	580.225	-494.056	1631.110	597.104	-153.499	1666.031	599.394	-429.416	1598.188	517.304	-157.659	1714.604	526.697	-420.669	1381.058	157.035	-99.982	1831.007	204.664	-356.446	1388.852	164.804	-143.191	1791.314	204.485	-359.846	1475.178	40.005	-171.965	1828.452	63.871	-393.332
	32	0.35833	1608.091	814.443	-243.292	1593.017	794.286	-176.908	1589.847	799.502	-328.913	1501.314	441.793	-195.296	1775.608	444.005	-353.140	1386.765	82.079	-210.552	1766.819	81.648	-356.100	1683.860	868.246	-249.347	1682.430	864.167	-130.576	1685.290	872.325	-368.119	1491.698	934.681	-217.718	1488.087	927.140	-272.053	1508.606	436.905	-137.964	1778.512	449.453	-410.811	1497.277	446.027	-254.556	1797.204	458.472	-289.350	1371.235	85.467	-173.846	1750.147	82.349	-392.453	1403.177	84.866	-242.303	1782.785	89.789	-333.349	1585.885	1371.448	-256.272	1715.503	1313.121	-214.672	1706.103	1304.121	-320.327	1707.383	1305.154	-266.440	1747.638	1236.147	-267.918	1687.154	534.085	-215.803	1752.574	578.898	-493.546	1640.319	595.619	-153.481	1679.377	597.910	-428.740	1605.990	515.986	-157.351	1728.034	524.677	-419.904	1382.727	159.297	-100.598	1860.128	208.523	-356.100	1391.016	166.602	-143.872	1821.588	205.603	-360.363	1475.312	40.193	-172.116	1866.586	66.607	-392.935
	33	0.36667	1621.726	813.005	-244.967	1606.503	791.936	-177.523	1603.270	797.525	-329.513	1508.174	442.149	-195.829	1790.529	443.116	-352.443	1387.954	83.977	-210.730	1802.383	80.375	-356.269	1697.317	866.072	-249.818	1695.932	861.690	-130.740	1698.702	870.454	-368.896	1504.827	932.565	-218.360	1501.113	925.171	-272.744	1514.828	437.274	-138.419	1793.419	448.376	-410.132	1505.735	445.670	-255.230	1807.530	454.595	-288.523	1372.282	87.715	-174.119	1785.772	80.216	-392.657	1404.275	86.988	-242.579	1818.373	89.623	-333.305	1599.532	1369.859	-256.233	1728.994	1311.188	-214.970	1719.333	1302.263	-320.564	1720.888	1303.335	-266.766	1760.792	1234.148	-268.299	1696.216	531.197	-214.795	1766.868	577.371	-493.177	1649.479	594.204	-153.296	1692.780	596.035	-428.426	1614.052	514.719	-157.109	1740.564	522.306	-419.474	1384.624	161.754	-101.070	1888.200	212.606	-355.769	1392.694	168.788	-144.049	1850.521	207.126	-361.062	1475.443	40.418	-172.234	1903.550	69.921	-392.092
